<?xml version="1.0" encoding="UTF-8"?>
<!DOCTYPE svg PUBLIC "-//W3C//DTD SVG 1.1//EN" "http://www.w3.org/Graphics/SVG/1.1/DTD/svg11.dtd">
<!-- Creator: CorelDRAW X8 -->
<svg xmlns="http://www.w3.org/2000/svg" xml:space="preserve" width="49.8876mm" height="54.1071mm" version="1.1" style="shape-rendering:geometricPrecision; text-rendering:geometricPrecision; image-rendering:optimizeQuality; fill-rule:evenodd; clip-rule:evenodd"
viewBox="0 0 52780 57244"
 xmlns:xlink="http://www.w3.org/1999/xlink">
 <defs>
  <style type="text/css">
   <![CDATA[
    .str1 {stroke:#96989A;stroke-width:528.986}
    .str0 {stroke:#7EC90D;stroke-width:528.986}
    .str5 {stroke:#96989A;stroke-width:423.189}
    .str3 {stroke:#7EC90D;stroke-width:423.189}
    .str4 {stroke:#96989A;stroke-width:317.392}
    .str2 {stroke:#7EC90D;stroke-width:317.392}
    .str6 {stroke:#96989A;stroke-width:211.594}
    .str7 {stroke:#7EC90D;stroke-width:211.594}
    .fil4 {fill:none}
    .fil3 {fill:#96989A}
    .fil2 {fill:#7EC90D}
    .fil1 {fill:#96989A;fill-rule:nonzero}
    .fil0 {fill:#A8CF45;fill-rule:nonzero}
   ]]>
  </style>
 </defs>
 <g id="Capa_x0020_1">
  <metadata id="CorelCorpID_0Corel-Layer"/>
  <g id="_72534393632">
   <g>
    <path class="fil0" d="M3399 57244l-1467 0c-666,0 -1155,-127 -1466,-379 -311,-253 -466,-666 -466,-1240l0 -1820c0,-580 140,-995 421,-1244 280,-250 746,-375 1398,-375l307 0c1091,0 1637,523 1637,1568l0 1315 -2797 0 0 759c0,438 285,657 853,657l1580 0 0 759zm-2433 -3641l0 708 1853 0 0 -759c0,-175 -64,-320 -193,-435 -129,-115 -292,-172 -489,-172l-432 0c-273,0 -464,56 -574,167 -110,111 -165,275 -165,491z"/>
    <path class="fil1" d="M8787 57244l-1387 0c-659,0 -1165,-143 -1517,-430 -353,-287 -529,-717 -529,-1290l0 -3641c0,-573 176,-1003 529,-1290 352,-286 858,-429 1517,-429l1387 0 0 768 -1500 0c-281,0 -508,74 -682,223 -175,148 -262,327 -262,536l0 4025c0,210 87,388 262,537 174,148 401,222 682,222l1500 0 0 769zm5150 -1619c0,567 -158,978 -472,1234 -315,257 -802,385 -1461,385l-148 0c-659,0 -1146,-128 -1460,-385 -315,-256 -472,-667 -472,-1234l0 -1820c0,-567 157,-978 472,-1234 314,-256 801,-385 1460,-385l148 0c659,0 1146,129 1461,385 314,256 472,667 472,1234l0 1820zm-967 203l0 -2225c0,-439 -284,-658 -852,-658l-375 0c-569,0 -853,219 -853,658l0 2225c0,438 284,657 853,657l375 0c568,0 852,-219 852,-657zm3638 1416l-966 0 0 -5058 909 0 0 243c235,-162 538,-243 910,-243l68 0c689,0 1182,156 1478,466 280,-310 670,-466 1170,-466l69 0c614,0 1070,129 1369,385 300,256 450,667 450,1234l0 3439 -967 0 0 -3641c0,-203 -66,-363 -199,-481 -132,-118 -312,-177 -540,-177l-295 0c-235,0 -411,62 -529,187 -117,125 -184,258 -199,400l0 3712 -966 0 0 -3641c0,-203 -64,-363 -193,-481 -129,-118 -307,-177 -534,-177l-296 0c-243,0 -426,56 -551,167 -126,111 -188,231 -188,359l0 3773zm10958 0l-909 0 0 -233c-250,155 -553,233 -909,233l-160 0c-613,0 -1070,-128 -1369,-385 -300,-256 -449,-667 -449,-1234l0 -3439 966 0 0 3642c0,202 66,362 199,480 132,118 312,177 540,177l386 0c243,0 423,-54 540,-162 118,-108 184,-229 199,-364l0 -3773 966 0 0 5058zm2785 0l-966 0 0 -5058 910 0 0 243c234,-162 538,-243 909,-243l296 0c613,0 1070,129 1369,385 300,256 449,667 449,1234l0 3439 -966 0 0 -3641c0,-203 -66,-363 -199,-481 -132,-118 -312,-177 -540,-177l-523 0c-250,0 -435,59 -557,177 -121,118 -182,245 -182,379l0 3743zm5752 -6170l-1079 0 0 -910 1079 0 0 910zm-56 6170l-967 0 0 -5058 967 0 0 5058zm5695 0l-910 0 0 -233c-250,155 -553,233 -909,233l-239 0c-667,0 -1156,-127 -1466,-379 -311,-253 -466,-666 -466,-1240l0 -1820c0,-567 157,-978 471,-1234 315,-256 802,-385 1461,-385l1092 0 0 -2022 966 0 0 7080zm-1705 -759c250,0 435,-59 557,-177 121,-118 182,-244 182,-379l0 -2984 -1205 0c-569,0 -853,219 -853,658l0 2225c0,438 284,657 853,657l466 0zm7502 759l-625 0c-227,0 -436,-101 -625,-304 -175,203 -406,304 -694,304l-784 0c-576,0 -995,-103 -1256,-309 -262,-205 -392,-558 -392,-1057l0 -202c0,-1045 553,-1568 1659,-1568l1183 0 0 -505c0,-439 -285,-658 -853,-658l-1535 0 0 -759 1421 0c660,0 1147,129 1461,385 315,256 472,667 472,1234l0 2427c0,203 189,304 568,304l0 708zm-2057 -759c250,0 405,-61 466,-182 38,-94 57,-202 57,-324l0 -1112 -1194 0c-197,0 -360,57 -489,172 -129,114 -193,259 -193,435l0 505c0,176 45,304 136,385 91,81 235,121 432,121l785 0zm7298 759l-910 0 0 -233c-250,155 -553,233 -909,233l-239 0c-667,0 -1156,-127 -1466,-379 -311,-253 -466,-666 -466,-1240l0 -1820c0,-567 157,-978 471,-1234 315,-256 802,-385 1461,-385l1091 0 0 -2022 967 0 0 7080zm-1705 -759c250,0 435,-59 557,-177 121,-118 181,-244 181,-379l0 -2984 -1204 0c-569,0 -853,219 -853,658l0 2225c0,438 284,657 853,657l466 0z"/>
   </g>
   <polygon class="fil2 str0" points="17709,44856 18724,44856 18724,48180 17709,48180 "/>
   <polygon class="fil3 str1" points="24158,44786 25172,44786 25172,48110 24158,48110 "/>
   <polygon class="fil2 str0" points="30540,44856 31555,44856 31555,48180 30540,48180 "/>
   <polyline class="fil4 str0" points="10046,25305 10896,24543 12669,24668 22792,35947 22792,41007 18216,43177 18216,44856 "/>
   <polyline class="fil4 str0" points="8707,24883 3429,18995 3564,16510 6113,14226 8133,14336 11708,18324 11605,20468 10381,21565 "/>
   <polyline class="fil4 str2" points="5779,18067 6196,17693 8560,18794 9208,18213 "/>
   <path class="fil2" d="M9818 17652c157,175 142,444 -33,601 -175,157 -444,142 -601,-33 -156,-175 -142,-444 33,-600 175,-157 444,-143 601,32z"/>
   <path class="fil4 str2" d="M5779 18067c192,215 182,537 -22,721 -205,183 -527,158 -719,-57 -193,-214 -183,-537 22,-721 204,-183 527,-158 719,57z"/>
   <path class="fil4 str3" d="M10381 21565c265,295 251,739 -31,991 -281,252 -724,218 -989,-77 -264,-296 -250,-739 31,-992 282,-252 724,-218 989,78z"/>
   <path class="fil4 str3" d="M9922 24553c265,295 251,739 -30,992 -282,252 -724,217 -989,-78 -265,-295 -251,-739 31,-991 281,-253 724,-218 988,77z"/>
   <path class="fil4 str2" d="M3368 22577c193,214 183,537 -22,721 -204,183 -527,158 -719,-57 -192,-214 -182,-537 22,-721 205,-183 527,-158 719,57z"/>
   <path class="fil4 str2" d="M6374 24884l2997 3495 1876 135 700 -507c2230,1179 2845,2863 2089,4976"/>
   <polyline class="fil4 str2" points="13646,23602 14411,23561 16031,21752 16103,20322 14626,18930 13465,19057 "/>
   <path class="fil2" d="M12833 18793c-156,175 -142,444 33,601 175,156 444,142 601,-33 157,-175 142,-444 -33,-601 -175,-157 -444,-142 -601,33z"/>
   <path class="fil2" d="M12942 23316c-156,175 -142,443 33,600 175,157 444,142 601,-32 157,-175 142,-444 -33,-601 -175,-157 -444,-142 -601,33z"/>
   <path class="fil4 str2" d="M2000 12489c192,214 182,537 -22,721 -205,183 -527,158 -720,-57 -192,-215 -182,-537 23,-721 204,-183 526,-158 719,57z"/>
   <path class="fil2" d="M4746 13827c157,175 142,444 -33,601 -175,157 -444,142 -600,-33 -157,-175 -143,-444 32,-601 175,-156 444,-142 601,33z"/>
   <polyline class="fil4 str2" points="1978,13210 2925,14045 4056,14098 "/>
   <path class="fil4 str2" d="M16400 25411c192,214 182,537 -22,721 -205,183 -527,158 -719,-57 -193,-214 -183,-537 22,-721 204,-183 526,-158 719,57z"/>
   <polyline class="fil4 str1" points="24660,44786 24709,20255 23476,18975 22335,18971 "/>
   <polyline class="fil4 str1" points="21624,17760 21650,9852 23415,8099 26838,8110 28264,9546 28246,14901 26733,16424 25089,16418 "/>
   <polyline class="fil4 str4" points="23804,10667 24365,10669 25382,13070 26252,13073 "/>
   <path class="fil3" d="M23874 10662c-1,235 -192,425 -427,424 -235,-1 -424,-192 -424,-427 1,-235 192,-424 427,-424 235,1 425,192 424,427z"/>
   <path class="fil4 str4" d="M27247 13076c-1,288 -224,521 -499,520 -275,-1 -497,-235 -496,-523 1,-289 224,-522 499,-521 275,1 497,235 496,524z"/>
   <path class="fil4 str5" d="M25089 16418c-1,397 -308,717 -686,716 -378,-1 -684,-324 -683,-720 2,-397 309,-717 687,-716 378,1 684,324 682,720z"/>
   <path class="fil4 str5" d="M22747 18330c-2,396 -309,717 -687,715 -378,-1 -684,-323 -682,-720 1,-396 309,-717 687,-715 378,1 683,323 682,720z"/>
   <polyline class="fil4 str4" points="20337,16054 20326,20705 21591,22101 22047,22099 "/>
   <polyline class="fil4 str4" points="25993,19798 26535,20338 29319,20331 30110,19537 30105,17294 29466,16638 "/>
   <path class="fil3" d="M29326 15977c-235,1 -425,192 -425,427 1,235 192,425 427,424 234,-1 424,-191 424,-426 -1,-235 -191,-425 -426,-425z"/>
   <path class="fil3" d="M25735 19083c-235,1 -425,192 -425,427 1,235 192,425 427,424 235,0 425,-191 424,-426 0,-235 -191,-425 -426,-425z"/>
   <path class="fil4 str4" d="M25442 3986c-1,288 -225,521 -500,520 -274,-1 -497,-235 -496,-523 1,-289 225,-522 500,-521 275,1 497,236 496,524z"/>
   <path class="fil3" d="M26584 6820c-1,234 -192,424 -427,424 -235,-1 -425,-192 -424,-427 1,-235 192,-425 427,-424 235,1 425,192 424,427z"/>
   <polyline class="fil4 str6" points="24942,4506 25086,5761 25890,6558 "/>
   <path class="fil4 str4" d="M27174 23522c-1,289 -224,522 -499,521 -275,-1 -497,-236 -496,-524 1,-288 224,-521 499,-520 275,0 497,235 496,523z"/>
   <polyline class="fil4 str0" points="36417,23155 37246,23939 37268,25716 26887,36739 26887,41217 31048,42863 31048,44856 "/>
   <polyline class="fil4 str2" points="36727,21786 42158,16039 44645,15968 47133,18319 47190,20342 43511,24234 41366,24308 40172,23180 "/>
   <polyline class="fil4 str2" points="42784,18811 43191,19196 42289,21643 42921,22240 "/>
   <path class="fil2" d="M43456 22753c-161,171 -430,179 -601,17 -171,-161 -178,-430 -17,-601 161,-171 431,-178 601,-17 171,161 179,431 17,601z"/>
   <path class="fil4 str2" d="M42784 18811c-198,210 -521,226 -721,38 -200,-189 -201,-512 -3,-722 198,-209 521,-226 720,-37 200,189 202,512 4,721z"/>
   <path class="fil4 str3" d="M40172 23180c-273,288 -716,311 -991,51 -275,-260 -277,-704 -5,-992 273,-288 716,-311 991,-51 275,259 277,703 5,992z"/>
   <path class="fil4 str3" d="M37155 22970c-272,288 -716,311 -990,51 -275,-260 -277,-704 -5,-992 273,-288 716,-311 991,-51 275,259 277,703 4,992z"/>
   <path class="fil4 str2" d="M37050 19008l-3191 3384 -34 1883 668 622c-1927,3247 -4025,4439 -6231,4328"/>
   <polyline class="fil4 str2" points="38486,26506 38512,27271 40494,29124 41615,29086 43146,27447 43129,26531 "/>
   <path class="fil2" d="M43418 25869c-172,-160 -441,-151 -602,21 -160,171 -151,441 21,601 171,160 440,151 601,-20 160,-172 151,-441 -20,-602z"/>
   <path class="fil2" d="M38787 25808c-171,-160 -440,-151 -601,20 -160,172 -151,441 21,602 171,160 440,151 601,-21 160,-171 151,-440 -21,-601z"/>
   <path class="fil4 str2" d="M48938 14357c-198,209 -521,226 -720,37 -200,-189 -202,-512 -4,-721 198,-210 521,-226 721,-38 200,189 201,512 3,722z"/>
   <path class="fil2" d="M47831 17204c-161,171 -431,179 -601,17 -171,-161 -179,-430 -17,-601 161,-171 430,-178 601,-17 171,161 178,431 17,601z"/>
   <polyline class="fil4 str7" points="48218,14394 47463,15407 47504,16539 "/>
   <path class="fil4 str2" d="M35335 31166c-195,-213 -188,-536 15,-721 203,-186 525,-163 720,50 194,212 187,535 -16,721 -203,185 -525,163 -719,-50z"/>
   <path class="fil4 str0" d="M20303 35349c-6108,-1775 -14087,-5564 -17131,-11952"/>
   <path class="fil2" d="M21074 35112c195,218 177,552 -41,747 -217,195 -552,177 -747,-41 -195,-217 -176,-552 41,-747 218,-195 552,-176 747,41z"/>
   <path class="fil4 str0" d="M16717 18710c-1165,-1831 -2642,-3400 -4694,-4485l-924 887 -1447 -1459 -2909 -46 -1833 -1498"/>
   <path class="fil2" d="M16524 18671c-195,218 -177,552 41,747 218,195 552,177 747,-40 195,-218 177,-552 -41,-747 -217,-195 -552,-177 -747,40z"/>
   <path class="fil4 str2" d="M5037 11474c193,214 183,537 -22,721 -205,183 -527,158 -719,-57 -193,-214 -183,-537 22,-721 205,-183 527,-158 719,57z"/>
   <path class="fil4 str0" d="M1530 19718c-896,-2443 -1621,-5182 -1078,-8243"/>
   <path class="fil2" d="M1024 10755c195,218 177,552 -41,747 -217,195 -552,177 -747,-41 -195,-217 -177,-552 41,-747 217,-195 552,-176 747,41z"/>
   <path class="fil4 str2" d="M2176 19829c193,214 183,537 -22,721 -205,183 -527,158 -719,-57 -193,-215 -183,-537 22,-721 205,-183 527,-158 719,57z"/>
   <path class="fil2" d="M6490 24298c156,175 142,443 -33,600 -175,157 -444,142 -601,-32 -157,-175 -142,-444 33,-601 175,-157 444,-142 601,33z"/>
   <path class="fil4 str1" d="M22952 32661c-3374,-6538 -5388,-12684 -3564,-21149"/>
   <path class="fil4 str1" d="M20682 7221c1235,-3342 2319,-4585 5072,-6594"/>
   <path class="fil4 str1" d="M32567 15812c171,-2164 -63,-4306 -1050,-6407l-1271 151c-472,-3449 -1195,-4352 -3135,-6122"/>
   <path class="fil3" d="M26493 531c-1,292 -238,528 -530,527 -292,-1 -529,-239 -528,-531 1,-292 239,-528 531,-527 292,1 528,239 527,531z"/>
   <path class="fil4 str4" d="M21019 7717c-1,288 -225,521 -500,520 -274,-1 -497,-235 -496,-524 1,-288 225,-521 500,-520 275,1 497,235 496,524z"/>
   <path class="fil3" d="M20764 15707c0,235 -191,424 -426,424 -235,-1 -425,-192 -424,-427 1,-235 192,-425 427,-424 234,1 424,192 423,427z"/>
   <path class="fil4 str4" d="M20052 11022c-1,288 -224,521 -499,520 -275,-1 -497,-235 -496,-524 1,-288 224,-521 499,-520 275,1 497,235 496,524z"/>
   <path class="fil3" d="M23115 32431c-292,0 -529,238 -528,530 1,292 238,528 530,528 292,-1 528,-238 528,-531 -1,-292 -238,-528 -530,-527z"/>
   <path class="fil3" d="M32562 15596c-292,1 -528,238 -528,530 1,292 238,528 530,528 293,-1 529,-238 528,-531 -1,-292 -238,-528 -530,-527z"/>
   <path class="fil4 str4" d="M27471 3048c-1,289 -225,522 -500,521 -274,-1 -497,-236 -496,-524 1,-288 225,-521 500,-520 275,0 497,235 496,523z"/>
   <path class="fil2" d="M37605 19011c-161,170 -430,178 -601,17 -171,-162 -178,-431 -17,-602 161,-170 431,-178 601,-17 171,162 179,431 17,602z"/>
   <path class="fil4 str0" d="M27480 33600c519,-6440 4142,-14513 10903,-17798"/>
   <path class="fil4 str0" d="M43692 13215l3710 -158 43 -1444c1395,-869 2863,-962 4383,-483"/>
   <path class="fil4 str0" d="M45314 27700c1742,-1296 3200,-2882 4133,-5008l-951 -857c1830,-1939 2370,-4005 2747,-6311"/>
   <path class="fil2" d="M52534 11590c-200,212 -535,221 -747,21 -213,-201 -222,-536 -21,-748 200,-212 535,-222 747,-21 213,201 222,535 21,748z"/>
   <path class="fil4 str2" d="M43659 13597c-198,210 -520,227 -720,38 -200,-189 -201,-512 -3,-722 198,-209 520,-226 720,-37 200,189 201,512 3,721z"/>
   <path class="fil4 str2" d="M39162 15941c-198,210 -520,226 -720,38 -200,-189 -201,-512 -3,-722 198,-209 520,-226 720,-37 200,189 201,512 3,721z"/>
   <path class="fil2" d="M27842 33214c-214,-200 -548,-188 -748,25 -199,213 -188,548 25,747 214,200 548,189 748,-25 199,-213 188,-548 -25,-747z"/>
   <path class="fil2" d="M45363 27519c-213,-199 -548,-188 -747,25 -200,214 -189,548 25,748 213,199 548,188 747,-25 200,-214 189,-548 -25,-748z"/>
   <path class="fil4 str2" d="M51654 15434c-198,209 -521,226 -721,37 -200,-188 -201,-511 -3,-721 198,-210 520,-226 720,-37 200,188 202,511 4,721z"/>
   <path class="fil4 str0" d="M29283 36155l2799 -2729c4468,1442 6436,956 9203,-1590"/>
   <path class="fil2" d="M41868 31234c-214,-200 -548,-188 -748,25 -199,213 -188,548 25,748 214,199 549,188 748,-26 199,-213 188,-548 -25,-747z"/>
   <path class="fil4 str2" d="M28635 36684c-194,-213 -187,-536 16,-722 203,-185 525,-163 719,50 195,213 188,536 -15,721 -203,186 -525,164 -720,-49z"/>
   <path class="fil2" d="M12264 27723c157,175 142,444 -33,600 -175,157 -444,143 -600,-32 -157,-175 -143,-444 32,-601 175,-157 444,-142 601,33z"/>
   <path class="fil2" d="M34802 25189c-161,171 -430,178 -601,17 -171,-162 -179,-431 -17,-601 161,-171 430,-179 601,-18 171,162 179,431 17,602z"/>
   <path class="fil4 str4" d="M23001 22099c-1,288 -225,521 -500,520 -275,-1 -497,-235 -496,-523 1,-289 225,-522 500,-521 275,1 497,236 496,524z"/>
   <path class="fil4 str4" d="M22501 22619c209,2854 -541,4335 -1871,4949"/>
  </g>
 </g>
</svg>
