<?xml version="1.0" encoding="UTF-8"?>
<!DOCTYPE svg PUBLIC "-//W3C//DTD SVG 1.1//EN" "http://www.w3.org/Graphics/SVG/1.1/DTD/svg11.dtd">
<!-- Creator: CorelDRAW X8 -->
<svg xmlns="http://www.w3.org/2000/svg" xml:space="preserve" width="49.8876mm" height="54.1071mm" version="1.1" style="shape-rendering:geometricPrecision; text-rendering:geometricPrecision; image-rendering:optimizeQuality; fill-rule:evenodd; clip-rule:evenodd"
viewBox="0 0 1451 1574"
 xmlns:xlink="http://www.w3.org/1999/xlink">
 <defs>
  <style type="text/css">
   <![CDATA[
    .str1 {stroke:#FEFEFE;stroke-width:14.5418}
    .str0 {stroke:#7EC90D;stroke-width:14.5418}
    .str5 {stroke:#FEFEFE;stroke-width:11.6334}
    .str3 {stroke:#7EC90D;stroke-width:11.6334}
    .str4 {stroke:#FEFEFE;stroke-width:8.72506}
    .str2 {stroke:#7EC90D;stroke-width:8.72506}
    .str6 {stroke:#FEFEFE;stroke-width:5.8167}
    .str7 {stroke:#7EC90D;stroke-width:5.8167}
    .fil4 {fill:none}
    .fil3 {fill:#FEFEFE}
    .fil2 {fill:#7EC90D}
    .fil1 {fill:#FEFEFE;fill-rule:nonzero}
    .fil0 {fill:#A8CF45;fill-rule:nonzero}
   ]]>
  </style>
 </defs>
 <g id="Capa_x0020_1">
  <metadata id="CorelCorpID_0Corel-Layer"/>
  <g id="_70951043904">
   <g>
    <path class="fil0" d="M93 1574l-40 0c-18,0 -32,-4 -40,-11 -9,-7 -13,-18 -13,-34l0 -50c0,-16 4,-27 12,-34 7,-7 20,-10 38,-10l8 0c30,0 45,14 45,43l0 36 -76 0 0 21c0,12 7,18 23,18l43 0 0 21zm-66 -100l0 19 50 0 0 -21c0,-5 -1,-9 -5,-12 -3,-3 -8,-5 -13,-5l-12 0c-8,0 -13,2 -16,5 -3,3 -4,8 -4,14z"/>
    <path class="fil1" d="M242 1574l-39 0c-18,0 -32,-4 -41,-12 -10,-8 -15,-20 -15,-36l0 -100c0,-15 5,-27 15,-35 9,-8 23,-12 41,-12l39 0 0 21 -42 0c-7,0 -14,2 -18,6 -5,4 -8,9 -8,15l0 111c0,5 3,10 8,14 4,4 11,6 18,6l42 0 0 22zm141 -45c0,16 -4,27 -13,34 -8,7 -22,11 -40,11l-4 0c-18,0 -32,-4 -40,-11 -9,-7 -13,-18 -13,-34l0 -50c0,-15 4,-27 13,-34 8,-7 22,-10 40,-10l4 0c18,0 32,3 40,10 9,7 13,19 13,34l0 50zm-26 6l0 -61c0,-13 -8,-19 -24,-19l-10 0c-16,0 -24,6 -24,19l0 61c0,12 8,18 24,18l10 0c16,0 24,-6 24,-18zm100 39l-27 0 0 -139 25 0 0 6c6,-4 15,-6 25,-6l2 0c19,0 32,4 40,12 8,-8 19,-12 33,-12l2 0c16,0 29,3 37,10 8,7 13,19 13,34l0 95 -27 0 0 -100c0,-6 -2,-10 -5,-14 -4,-3 -9,-5 -15,-5l-8 0c-7,0 -12,2 -15,6 -3,3 -5,7 -5,11l0 102 -27 0 0 -100c0,-6 -2,-10 -5,-14 -4,-3 -9,-5 -15,-5l-8 0c-7,0 -12,2 -15,5 -4,3 -5,6 -5,10l0 104zm301 0l-25 0 0 -7c-7,4 -15,7 -25,7l-5 0c-16,0 -29,-4 -37,-11 -8,-7 -13,-18 -13,-34l0 -94 27 0 0 100c0,5 2,10 5,13 4,3 9,5 15,5l11 0c7,0 12,-2 15,-5 3,-3 5,-6 5,-10l0 -103 27 0 0 139zm76 0l-26 0 0 -139 25 0 0 6c6,-4 15,-6 25,-6l8 0c17,0 29,3 38,10 8,7 12,19 12,34l0 95 -27 0 0 -100c0,-6 -1,-10 -5,-14 -4,-3 -9,-5 -15,-5l-14 0c-7,0 -12,2 -16,5 -3,4 -5,7 -5,11l0 103zm158 -170l-29 0 0 -25 29 0 0 25zm-1 170l-27 0 0 -139 27 0 0 139zm156 0l-25 0 0 -7c-6,4 -15,7 -25,7l-6 0c-18,0 -32,-4 -40,-11 -9,-7 -13,-18 -13,-34l0 -50c0,-15 4,-27 13,-34 8,-7 22,-10 40,-10l30 0 0 -56 26 0 0 195zm-46 -21c6,0 12,-2 15,-5 3,-3 5,-7 5,-11l0 -82 -33 0c-16,0 -24,6 -24,19l0 61c0,12 8,18 24,18l13 0zm206 21l-17 0c-7,0 -12,-3 -18,-9 -4,6 -11,9 -19,9l-21 0c-16,0 -27,-3 -35,-9 -7,-6 -10,-15 -10,-29l0 -5c0,-29 15,-44 45,-44l33 0 0 -13c0,-13 -8,-19 -24,-19l-42 0 0 -20 39 0c18,0 32,3 40,10 9,7 13,19 13,34l0 67c0,5 5,8 16,8l0 20zm-57 -21c7,0 11,-2 13,-5 1,-3 2,-6 2,-9l0 -31 -33 0c-6,0 -10,2 -14,5 -3,3 -5,7 -5,12l0 14c0,5 1,8 4,10 2,3 6,4 12,4l21 0zm201 21l-25 0 0 -7c-7,4 -15,7 -25,7l-7 0c-18,0 -31,-4 -40,-11 -9,-7 -13,-18 -13,-34l0 -50c0,-15 5,-27 13,-34 9,-7 22,-10 40,-10l30 0 0 -56 27 0 0 195zm-47 -21c7,0 12,-2 15,-5 4,-3 5,-7 5,-11l0 -82 -33 0c-15,0 -23,6 -23,19l0 61c0,12 8,18 23,18l13 0z"/>
   </g>
   <polygon class="fil2 str0" points="487,1233 515,1233 515,1324 487,1324 "/>
   <polygon class="fil3 str1" points="664,1231 692,1231 692,1323 664,1323 "/>
   <polygon class="fil2 str0" points="840,1233 867,1233 867,1324 840,1324 "/>
   <polyline class="fil4 str0" points="276,696 300,675 348,678 627,988 627,1127 501,1187 501,1233 "/>
   <polyline class="fil4 str0" points="239,684 94,522 98,454 168,391 224,394 322,504 319,563 285,593 "/>
   <polyline class="fil4 str2" points="159,497 170,486 235,517 253,501 "/>
   <path class="fil2" d="M270 485c4,5 4,12 -1,17 -5,4 -12,4 -17,-1 -4,-5 -3,-12 1,-17 5,-4 13,-4 17,1z"/>
   <path class="fil4 str2" d="M159 497c5,6 5,14 -1,19 -5,6 -14,5 -20,-1 -5,-6 -5,-15 1,-20 6,-5 15,-4 20,2z"/>
   <path class="fil4 str3" d="M285 593c8,8 7,20 0,27 -8,7 -20,6 -28,-2 -7,-8 -7,-20 1,-27 8,-7 20,-6 27,2z"/>
   <path class="fil4 str3" d="M273 675c7,8 7,20 -1,27 -8,7 -20,6 -27,-2 -8,-8 -7,-20 1,-27 7,-7 19,-6 27,2z"/>
   <path class="fil4 str2" d="M93 621c5,6 5,14 -1,19 -6,5 -14,5 -20,-1 -5,-6 -5,-15 1,-20 5,-5 14,-4 20,2z"/>
   <path class="fil4 str2" d="M175 684l83 96 51 4 19 -14c62,32 79,79 58,137"/>
   <polyline class="fil4 str2" points="375,649 396,648 441,598 443,559 402,520 370,524 "/>
   <path class="fil2" d="M353 517c-5,4 -4,12 1,16 4,4 12,4 16,-1 5,-5 4,-12 -1,-16 -5,-5 -12,-4 -16,1z"/>
   <path class="fil2" d="M356 641c-5,5 -4,12 1,16 4,5 12,4 16,0 5,-5 4,-13 -1,-17 -5,-4 -12,-4 -16,1z"/>
   <path class="fil4 str2" d="M55 343c5,6 5,15 -1,20 -5,5 -14,4 -19,-1 -6,-6 -5,-15 0,-20 6,-5 15,-5 20,1z"/>
   <path class="fil2" d="M130 380c5,5 4,12 0,17 -5,4 -13,4 -17,-1 -4,-5 -4,-12 1,-17 5,-4 12,-4 16,1z"/>
   <polyline class="fil4 str2" points="54,363 80,386 111,388 "/>
   <path class="fil4 str2" d="M451 699c5,5 5,14 -1,19 -5,5 -14,5 -20,-1 -5,-6 -5,-15 1,-20 6,-5 15,-4 20,2z"/>
   <polyline class="fil4 str1" points="678,1231 679,557 645,522 614,522 "/>
   <polyline class="fil4 str1" points="594,488 595,271 644,223 738,223 777,262 776,410 735,451 690,451 "/>
   <polyline class="fil4 str4" points="654,293 670,293 698,359 722,359 "/>
   <path class="fil3" d="M656 293c0,7 -5,12 -11,12 -7,0 -12,-6 -12,-12 0,-6 5,-12 12,-12 6,0 11,6 11,12z"/>
   <path class="fil4 str4" d="M749 359c0,8 -6,15 -14,15 -7,0 -13,-7 -13,-15 0,-8 6,-14 13,-14 8,0 14,7 14,14z"/>
   <path class="fil4 str5" d="M690 451c0,11 -9,20 -19,20 -11,0 -19,-9 -19,-20 0,-11 9,-19 19,-19 10,0 19,8 19,19z"/>
   <path class="fil4 str5" d="M625 504c0,11 -8,20 -19,20 -10,0 -18,-9 -18,-20 0,-11 8,-20 19,-20 10,0 18,9 18,20z"/>
   <polyline class="fil4 str4" points="559,441 559,569 594,608 606,608 "/>
   <polyline class="fil4 str4" points="715,544 729,559 806,559 828,537 828,475 810,457 "/>
   <path class="fil3" d="M806 439c-6,0 -12,5 -12,12 1,6 6,12 12,12 7,0 12,-6 12,-12 0,-7 -5,-12 -12,-12z"/>
   <path class="fil3" d="M707 525c-6,0 -11,5 -11,11 0,7 5,12 12,12 6,0 11,-5 11,-12 0,-6 -5,-11 -12,-11z"/>
   <path class="fil4 str4" d="M699 110c0,7 -6,14 -13,14 -8,0 -14,-7 -14,-15 0,-7 6,-14 14,-14 7,0 13,7 13,15z"/>
   <path class="fil3" d="M731 187c0,7 -5,12 -12,12 -6,0 -12,-5 -12,-12 0,-6 6,-11 12,-11 7,0 12,5 12,11z"/>
   <polyline class="fil4 str6" points="686,124 690,158 712,180 "/>
   <path class="fil4 str4" d="M747 647c0,8 -6,14 -14,14 -7,0 -13,-7 -13,-14 0,-8 6,-15 13,-15 8,0 14,7 14,15z"/>
   <polyline class="fil4 str0" points="1001,637 1024,658 1025,707 739,1010 739,1133 853,1178 853,1233 "/>
   <polyline class="fil4 str2" points="1010,599 1159,441 1227,439 1296,504 1297,559 1196,666 1137,668 1104,637 "/>
   <polyline class="fil4 str2" points="1176,517 1187,528 1163,595 1180,611 "/>
   <path class="fil2" d="M1195 625c-5,5 -12,5 -17,1 -5,-4 -5,-12 0,-17 4,-4 11,-4 16,0 5,4 5,12 1,16z"/>
   <path class="fil4 str2" d="M1176 517c-5,6 -14,6 -20,1 -5,-5 -5,-14 0,-20 6,-5 15,-6 20,-1 6,5 6,14 0,20z"/>
   <path class="fil4 str3" d="M1104 637c-7,8 -19,9 -27,2 -7,-8 -8,-20 0,-28 7,-8 20,-8 27,-1 8,7 8,19 0,27z"/>
   <path class="fil4 str3" d="M1021 631c-7,8 -19,9 -27,2 -7,-7 -7,-19 0,-27 8,-8 20,-9 27,-2 8,7 8,20 0,27z"/>
   <path class="fil4 str2" d="M1019 523l-88 93 -1 51 18 17c-53,90 -110,122 -171,119"/>
   <polyline class="fil4 str2" points="1058,729 1059,750 1113,801 1144,800 1186,755 1186,729 "/>
   <path class="fil2" d="M1194 711c-5,-4 -13,-4 -17,1 -4,4 -4,12 1,16 4,5 12,4 16,0 5,-5 4,-12 0,-17z"/>
   <path class="fil2" d="M1066 709c-4,-4 -12,-4 -16,1 -5,5 -4,12 0,17 5,4 12,4 17,-1 4,-5 4,-12 -1,-17z"/>
   <path class="fil4 str2" d="M1345 395c-5,5 -14,6 -20,1 -5,-5 -5,-14 0,-20 6,-6 15,-6 20,-1 6,5 6,14 0,20z"/>
   <path class="fil2" d="M1315 473c-5,5 -12,5 -17,0 -4,-4 -5,-11 0,-16 4,-5 12,-5 16,-1 5,5 5,12 1,17z"/>
   <polyline class="fil4 str7" points="1325,396 1305,424 1306,455 "/>
   <path class="fil4 str2" d="M971 857c-5,-6 -5,-15 1,-20 5,-5 14,-5 20,1 5,6 5,15 -1,20 -5,5 -14,5 -20,-1z"/>
   <path class="fil4 str0" d="M558 972c-168,-49 -387,-153 -471,-329"/>
   <path class="fil2" d="M579 965c6,6 5,15 -1,21 -6,5 -15,5 -20,-1 -6,-6 -5,-16 1,-21 6,-5 15,-5 20,1z"/>
   <path class="fil4 str0" d="M460 514c-32,-50 -73,-93 -129,-123l-26 24 -40 -40 -80 -1 -50 -41"/>
   <path class="fil2" d="M454 513c-5,6 -5,15 1,21 6,5 16,5 21,-1 5,-6 5,-15 -1,-21 -6,-5 -15,-5 -21,1z"/>
   <path class="fil4 str2" d="M138 315c6,6 5,15 0,20 -6,5 -15,5 -20,-1 -5,-6 -5,-15 1,-20 5,-5 14,-4 19,1z"/>
   <path class="fil4 str0" d="M42 542c-25,-67 -44,-142 -30,-227"/>
   <path class="fil2" d="M28 296c6,6 5,15 -1,20 -6,6 -15,5 -21,-1 -5,-6 -4,-15 2,-20 6,-6 15,-5 20,1z"/>
   <path class="fil4 str2" d="M60 545c5,6 5,15 -1,20 -5,5 -14,4 -20,-2 -5,-6 -5,-14 1,-19 6,-6 15,-5 20,1z"/>
   <path class="fil2" d="M178 668c5,5 4,12 -1,16 -4,5 -12,4 -16,0 -4,-5 -4,-13 1,-17 5,-4 12,-4 16,1z"/>
   <path class="fil4 str1" d="M631 898c-93,-180 -148,-349 -98,-582"/>
   <path class="fil4 str1" d="M569 198c34,-91 63,-126 139,-181"/>
   <path class="fil4 str1" d="M895 435c5,-60 -1,-119 -29,-176l-35 4c-13,-95 -32,-120 -86,-169"/>
   <path class="fil3" d="M728 15c0,8 -6,14 -14,14 -8,0 -15,-6 -15,-15 0,-8 7,-14 15,-14 8,0 14,7 14,15z"/>
   <path class="fil4 str4" d="M578 212c0,8 -6,14 -14,14 -7,0 -14,-6 -14,-14 0,-8 7,-14 14,-14 8,0 14,6 14,14z"/>
   <path class="fil3" d="M571 432c0,6 -5,11 -12,11 -6,0 -12,-5 -12,-11 0,-7 6,-12 12,-12 7,0 12,5 12,12z"/>
   <path class="fil4 str4" d="M551 303c0,8 -6,14 -13,14 -8,0 -14,-6 -14,-14 0,-8 6,-14 14,-14 7,0 13,6 13,14z"/>
   <path class="fil3" d="M635 892c-8,0 -14,6 -14,14 0,8 6,15 14,15 9,0 15,-7 15,-15 0,-8 -7,-14 -15,-14z"/>
   <path class="fil3" d="M895 429c-8,0 -14,6 -14,14 0,8 6,15 14,15 8,0 15,-7 15,-15 0,-8 -7,-14 -15,-14z"/>
   <path class="fil4 str4" d="M755 84c0,8 -6,14 -14,14 -7,0 -13,-6 -13,-14 0,-8 6,-15 14,-15 7,0 13,7 13,15z"/>
   <path class="fil2" d="M1034 523c-5,4 -12,5 -17,0 -4,-4 -5,-12 0,-16 4,-5 12,-5 16,-1 5,5 5,12 1,17z"/>
   <path class="fil4 str0" d="M755 924c15,-177 114,-399 300,-490"/>
   <path class="fil4 str0" d="M1201 363l102 -4 1 -40c39,-24 79,-26 121,-13"/>
   <path class="fil4 str0" d="M1246 761c48,-35 88,-79 113,-137l-26 -24c50,-53 65,-110 76,-173"/>
   <path class="fil2" d="M1444 319c-5,5 -15,6 -20,0 -6,-5 -6,-15 -1,-20 6,-6 15,-6 21,-1 5,6 6,15 0,21z"/>
   <path class="fil4 str2" d="M1200 374c-5,6 -14,6 -20,1 -5,-5 -5,-14 0,-20 6,-6 15,-6 20,-1 6,5 6,14 0,20z"/>
   <path class="fil4 str2" d="M1077 438c-6,6 -15,6 -20,1 -6,-5 -6,-14 0,-20 5,-5 14,-6 19,-1 6,6 6,14 1,20z"/>
   <path class="fil2" d="M765 913c-6,-5 -15,-5 -20,1 -6,6 -5,15 1,20 5,6 15,5 20,0 6,-6 5,-15 -1,-21z"/>
   <path class="fil2" d="M1247 756c-6,-5 -15,-5 -21,1 -5,6 -5,15 1,21 6,5 15,5 21,-1 5,-6 5,-15 -1,-21z"/>
   <path class="fil4 str2" d="M1420 424c-5,6 -14,6 -20,1 -5,-5 -5,-14 0,-20 6,-5 14,-6 20,-1 5,6 5,15 0,20z"/>
   <path class="fil4 str0" d="M805 994l77 -75c123,40 177,26 253,-44"/>
   <path class="fil2" d="M1151 859c-6,-6 -15,-6 -21,0 -5,6 -5,15 1,21 6,5 15,5 21,-1 5,-6 5,-15 -1,-20z"/>
   <path class="fil4 str2" d="M787 1008c-5,-5 -5,-14 1,-19 5,-5 14,-5 19,1 6,6 6,15 0,20 -6,5 -14,4 -20,-2z"/>
   <path class="fil2" d="M337 762c4,5 4,12 -1,17 -5,4 -12,4 -16,-1 -5,-5 -4,-12 1,-17 4,-4 12,-4 16,1z"/>
   <path class="fil2" d="M957 692c-5,5 -12,5 -17,1 -5,-5 -5,-12 0,-17 4,-4 12,-5 16,0 5,4 5,12 1,16z"/>
   <path class="fil4 str4" d="M632 607c0,8 -6,15 -13,15 -8,0 -14,-7 -14,-15 0,-8 6,-14 14,-14 7,0 13,7 13,14z"/>
   <path class="fil4 str4" d="M619 622c5,78 -15,119 -52,136"/>
  </g>
 </g>
</svg>
